<?xml version="1.0" encoding="utf-8"?>
<!-- Generator: Adobe Illustrator 23.0.1, SVG Export Plug-In . SVG Version: 6.00 Build 0)  -->
<svg version="1.1" id="Layer_1" xmlns="http://www.w3.org/2000/svg" xmlns:xlink="http://www.w3.org/1999/xlink" x="0px" y="0px"
	 viewBox="0 0 538 458" style="enable-background:new 0 0 538 458;" xml:space="preserve">
<style type="text/css">
	.st0{display:none;}
	.st1{fill:#010101;}
	.st2{fill:#FCFCFC;}
	.st3{fill:#FCFCFC;stroke:#000000;stroke-width:2;}
	.st4{fill:#C99A2D;stroke:#000000;}
	.st5{fill:#C99A2D;stroke:#FFFFFF;}
	.st6{fill:#C99A2D;}
</style>
<g class="st0">
	<path class="st1" d="M543,465c-184,0-368,0-552,0C-9,311-9,157-9,3c184,0,368,0,552,0C543,157,543,311,543,465z M242.01,173.02
		c0.12-1.8-0.93-2.38-2.51-2.83c-7.19-2.03-14.45-3.56-21.97-3.02c-2.09,0.15-4.14,0.96-6.21,1.47c0.08,0.34,0.17,0.69,0.25,1.03
		c2.89,0.28,5.78,0.73,8.68,0.8c7.36,0.16,14.33,3.61,21.83,2.48c-1.18,0.54-2.34,1.13-3.54,1.62
		c-24.4,10.12-48.32,21.26-71.62,33.72c-4.15,2.22-6.43,7.85-5.13,13.04c4.17-2.9,8.31-5.78,12.87-8.95c0,9.02,0,17.12,0,25.42
		c-5.6-3.4-9.14-8.95-15.17-11.59c-1.06,3.41-0.18,5.62,1.85,7.75c5.04,5.28,9.91,10.74,14.92,16.05c0.43,0.46,1.46,0.35,2.21,0.5
		c0.24,0.23,0.47,0.46,0.71,0.69c-8.9,6.66-17.62,13.6-26.78,19.88c-5.28,3.62-6.38,8.02-5.12,13.85c4.24,0.28,6.58-2.98,9.35-5.08
		c17.21-13.06,34.3-26.3,51.44-39.45c0.77-0.59,1.74-0.92,3.04-1.59c-0.77,2.38-1.86,4.1-1.78,5.77c0.34,6.95,0.92,13.9,1.67,20.82
		c0.13,1.2,1.49,2.27,2.29,3.39c1.19-1,2.63-1.82,3.48-3.05c0.58-0.84,0.42-2.25,0.44-3.4c0.11-6.33,0.23-12.66,0.23-18.99
		c0-2.07-0.36-4.14-0.58-6.54c-1.96,0.46-3.24,0.76-4.53,1.06c16.66-12.14,34.13-22.73,52.94-32.71c0.32,4.32,0.65,7.62,0.8,10.92
		c0.65,14.62,1.18,29.25,1.94,43.87c0.12,2.23-0.13,4.92,2.67,7.15c0.17-1.96,0.39-3.21,0.37-4.45c-0.23-12.65-0.63-25.3-0.72-37.95
		c-0.24-35.82-0.68-71.65-0.44-107.47c0.24-34.3-0.52-68.63,2.09-102.88c0.14-1.82,0.2-3.69-0.04-5.49
		c-0.13-0.99-0.96-1.89-1.47-2.83c-1.08,0.62-2.65,0.99-3.12,1.92c-0.79,1.57-1.14,3.47-1.24,5.26c-0.43,7.48-0.85,14.96-0.99,22.45
		c-0.4,22.48-0.65,44.96-0.98,67.44c-0.02,1.22-0.18,2.43-0.21,2.85c-5.76,0-11.06-0.1-16.35,0.02
		c-10.32,0.25-20.64,0.65-30.95,0.93c-1.99,0.05-3.64,0.44-4.23,2.63c-0.62,2.3,0.54,3.39,3.88,3.46
		c14.15,0.27,28.3,0.57,42.45,0.69c1.75,0.01,3.51-0.99,5.28-1.52c0,8.46,0.01,17.44,0,26.42c-0.01,8.76,0.85,17.54-0.41,26.35
		c-1.46-3.64,0.71-8.48-4.13-10.44c0.95-1.58,1.77-2.96,2.64-4.41c-6.49-6.64-12.71-13.02-19.33-19.81
		c5.18-2.59,10.22-5.08,15.23-7.64c2.11-1.08,3.58-2.86,2.62-5.22c-1.19-2.93-3.47-1.19-5.05-0.38c-6.04,3.11-11.96,6.43-17.65,9.53
		c-6.03-3.57-12.02-7.12-18.03-10.64c-1-0.58-2.06-1.08-3.14-1.5c-2.44-0.95-3.8,0.47-4.72,2.43c-1.01,2.14,0.63,2.95,2.11,3.79
		c6.02,3.38,12.04,6.78,18.4,10.36c-1.98,1.99-3.33,3.24-4.54,4.59c-3.43,3.84-6.86,7.69-10.17,11.63
		c-1.64,1.95-2.31,4.05,0.44,5.97c6-6.19,11.95-12.33,18.2-18.78c7.08,7.09,14.35,12.75,20.57,20.35
		c-15.24,0.38-29.65-2.35-43.85-0.03c-2.69-39.77-3.3-80.11-3.16-120.52c3.39,0,6.41,0,10.51,0c-3.9,2.67-3.54,5.78-3.19,9
		c0.35,3.3,0.35,6.63,0.55,9.94c0.07,1.24,0.28,2.47,0.44,3.74c4.37-1,5.53-2.17,5.49-6.54c-0.05-5.38-0.53-10.77-0.82-16.13
		c4.19,0,8.37,0,12.11,0c-2.43,7.28-0.73,14.49-1.27,21.69c4.75-0.44,5.94-1.41,6.09-5.44c0.2-5.41,0.05-10.83,0.05-16.47
		c4.03-0.23,8.65-0.49,13.29-0.76c-5.43,7.14-2.21,15.21-2.94,23.14c-0.21,0.04-0.83,0.25-1.45,0.27
		c-10.97,0.48-21.93,1.08-32.9,1.3c-3.49,0.07-4.77,1.73-5.17,4.67c-0.18,1.28-0.03,2.6-0.03,4.27c17.19,0,34.06,0,50.95,0
		c0.55-1.88,1.15-3.28,1.35-4.74c0.7-4.99-0.08-5.79-5.24-5.76c-1.29,0.01-2.58,0-3.72,0c3.88-7.39,1.34-15.26,1.8-22.95
		c8.9-0.51,8.9-0.51,6.9-9.68c-17.54,0.58-35.2,1.17-53.09,1.76c0-2.9,0.1-5.72-0.02-8.53c-0.19-4.22-1.82-5.91-5.27-5.73
		c-3.28,0.17-4.54,1.63-4.56,5.78c-0.02,6.83,0.03,13.66,0.21,20.49c0.61,23.47,1.29,46.94,1.95,70.41
		c0.4,14.31,0.78,28.62,1.23,42.93c0.12,3.92,0.48,7.83,0.72,11.68c1,0.18,1.55,0.46,1.95,0.33c3.61-1.24,7.15-3.15,10.83-0.02
		c0.47,0.4,1.63,0.08,2.44-0.05c13.37-2.18,26.45-0.18,39.46,2.74c0.29,0.07,0.47,0.63,0.82,1.12
		C253.51,168.84,247.76,170.93,242.01,173.02z M305.03,136.95c-1.3,0.12-2.65,0.04-3.88,0.41c-6.95,2.05-13.88,4.21-21.18,6.44
		c0-1.86-0.03-3.5,0-5.14c0.32-14.65,0.35-29.32,1.04-43.96c1.29-27.41-0.03-54.93,3.82-82.22c0.43-3.03-0.55-5.29-3.59-6.26
		c-2.23-0.72-4.91,1.03-6.18,3.92c-0.4,0.91-0.82,1.86-0.93,2.83c-0.39,3.47-0.86,6.94-0.93,10.42
		c-0.73,34.81-1.58,69.61-1.99,104.42c-0.23,19.98,0.23,39.97,0.48,59.95c0.29,23.31,0.69,46.62,1.06,69.93
		c0.06,3.49,0.16,6.99,0.39,10.48c0.14,2.11,0.75,4.03,3.51,3.81c2.51-0.2,3.38-1.74,3.32-4.08c-0.21-7.48-0.5-14.97-0.58-22.46
		c-0.1-9.77-0.02-19.54-0.02-29.75c9.02,4.84,21.89,4.9,29.16,0.19c-2.2,0.21-3.82,0.5-5.44,0.48c-3.62-0.04-7.25-0.05-10.83-0.48
		c-1.23-0.15-3.05-1.38-3.26-2.4c-0.23-1.09,0.81-2.93,1.84-3.7c1.93-1.43,4.26-2.31,5.39-2.89c2.42,1.86,4.02,4.12,5.69,4.17
		c3.7,0.12,1.86-3.9,3.24-5.91c6.81-1.01,13.68-2.04,20.55-3.06c-0.05-0.33-0.1-0.65-0.15-0.98c-6.87,0.64-13.74,1.28-21.02,1.95
		c0-2.92-0.04-5.22,0.01-7.51c0.1-4.31-1.16-9.48,0.79-12.7c2.05-3.38,7.12-5.02,11-7.19c5.61-3.13,11.34-6.05,18.13-9.65
		c0,5.74-0.07,10.35,0.02,14.95c0.09,4.66,0.44,9.31,0.49,13.97c0.08,7.28,0.76,10.62,2.86,12.73c0.54-0.78,1.08-1.55,1.98-2.84
		c0,3.21,0,5.69,0,8.47c-7.86,1.57-15.68,2.92-23.39,4.75c-5.28,1.26-10.54,2.89-15.52,5.02c-1.67,0.72-3.69,3.81-3.32,5.26
		c0.42,1.67,3.14,3.43,5.15,3.89c3.36,0.77,6.95,0.77,10.43,0.7c18.15-0.36,36.31-0.83,54.46-1.31c1.71-0.05,3.4-0.48,5.1-0.73
		c-8.6-0.88-17.11-0.66-25.59-0.94c-9.78-0.33-19.54-1.02-29.3-1.78c-1.37-0.11-2.64-1.49-3.95-2.28c1.11-1.28,1.96-3.1,3.36-3.74
		c3.6-1.64,7.37-3.01,11.19-4.04c17.36-4.67,35.22-6.14,53.02-7.98c3.24-0.33,6.71-0.15,9.03-3.51c-2.15-4.5-6.42-4.99-10.43-5.37
		c-4.96-0.48-10.02,0.02-14.94-0.63c-5.02-0.66-9.74,2.23-14.73,0.72c-0.27-0.08-0.77,0.62-1.76,1.48
		c10.93-0.15,21.16-1.71,31.73,2.27c-5.92,4-12.08,2.96-17.7,4.21c-5.72,1.27-11.53,2.18-16.85,3.16c0-18.53,0-36.29,0-53.61
		c8-4.79,15.42-9.14,22.68-13.72c0.83-0.52,1.13-2.43,1.09-3.67c-0.15-4.32-0.92-8.64-0.75-12.93c0.1-2.61-0.12-3.49-2.74-2.55
		c-5.14,1.85-10.25,3.74-15.41,5.53c-2.71,0.94-4.54,2.44-4.26,5.58c0-2.14,0-4.27,0-6.25c3.46-2.83,8.59-1.53,11.24-6.17
		c-3.66,0.39-7.31,0.78-11.55,1.23c0.33-17.25,0.42-34.39,1.07-51.5c0.65-17,1.87-33.97,2.83-50.86c-4.46-1.01-5.85,1.58-6.67,4.36
		c-0.74,2.52-1.11,5.21-1.23,7.84c-0.75,15.46-1.51,30.93-2,46.4c-0.52,16.48-0.86,32.97-1.06,49.45
		c-0.17,13.53-0.03,27.06-0.03,40.58c-0.47,0-0.94-0.01-1.41-0.01c0.55-49.2,1.09-98.41,1.64-147.95c-5.45,2.14-2.13,7.38-3.4,9.82
		c-11.26,0.37-21.98,0.73-33.12,1.1c0.2,2.03,0.33,3.4,0.49,5.07c10.81,0,21.19,0,31.78,0c-0.19,6.39,0.62,13.33-1.1,20.4
		c-10.56,0-20.64,0-30.7,0c-0.08,4.75,0.4,5.32,4.52,5.5c6.65,0.29,13.29,0.61,19.94,0.73c2.01,0.04,4.03-0.55,6.24-0.88
		c0,0.91,0,2.14,0,3.69c-0.62-0.41-1.19-0.97-1.34-0.87c-5.06,3.29-10.08,6.65-15.31,10.13c-3.22-3.74-6.3-7.3-9.34-10.83
		c-3.41,2.29-3.1,4.3-1.02,6.55c2.04,2.19,3.95,4.5,6.06,6.91c-3.29,2.82-6.43,5.51-10.13,8.68c-0.27-7.49-0.61-14.14-0.74-20.8
		c-0.26-13.3-0.37-26.6-0.63-39.9c-0.04-1.82-0.58-3.63-0.95-5.8c-4.72,1.88-6.88,4.28-6.6,8.92c0.53,8.97,0.7,17.96,0.89,26.95
		c0.5,23.48,0.91,46.97,1.42,70.45c0.05,2.4,0.51,4.78,0.78,7.14c3.31,0.07,5.02-1.3,6.18-3.51c0.46-0.86,0.68-2.02,1.38-2.56
		c4.32-3.3,8.74-6.46,13.22-9.74c4.62,3.88,8.55,9.33,15.41,10.03c0,1.73,0,3.44,0,5.16c0.72-3.38-1.08-4.13-3.91-4.18
		c-6.66-0.12-13.32-0.34-19.99-0.45c-1.27-0.02-2.55,0.28-4.33,0.5c0,1.74,0,3.19,0,4.65L305.03,136.95z M360.95,243.2
		c-18.2,8.43-36.02,16.67-53.84,24.93c-27.14,12.59-54.26,25.21-81.43,37.73c-1.55,0.71-3.56,1.1-5.21,0.8
		c-6.5-1.2-12.94-2.74-19.41-4.13c-22.31-4.79-44.62-9.56-67-14.35c-23,21.71-45.89,43.31-68.78,64.92
		c0.32,0.39,0.64,0.79,0.96,1.18c22.62-15.18,45.24-30.35,67.74-45.44c31.27,16.79,62.16,33.39,93.01,49.95
		c44.56-31.8,88.75-63.33,133.84-95.5c6.24,6.6,12.12,13.18,18.4,19.37c29.88,29.5,59.86,58.9,89.87,88.27
		c1.33,1.3,3.12,2.71,4.84,2.93c3.53,0.45,7.16,0.14,11.86,0.14C443.71,329.91,402.37,286.6,360.95,243.2z M527.65,405.07
		c0.05-0.37,0.1-0.74,0.15-1.12c-4.83-1.65-9.6-3.47-14.48-4.91c-36.42-10.75-73.87-15.76-111.54-18.8
		c-32.2-2.6-64.5-4.32-96.8-5.33c-70.33-2.21-140.61-1.39-210.6,7.08c-21.16,2.56-42.15,6.12-62.64,12.1
		c-8.83,2.58-17.56,5.52-26.48,10.95c2.26-0.1,3.4-0.01,4.47-0.23c32.55-6.52,65.51-9.86,98.53-12.6
		c44.85-3.72,89.81-5.38,134.8-5.98c67.34-0.9,134.65,0.07,201.72,6.78c20.03,2,39.96,5.01,59.9,7.8
		C512.39,401.89,520,403.63,527.65,405.07z M243.57,391.83c0,13.14,0,26,0,38.77c2.58,0,4.68,0,7.18,0c0-6.97,0-13.65,0-20.33
		c1.53,1.2,2.34,2.56,2.99,3.99c2.05,4.54,3.94,9.15,6.11,13.63c0.56,1.15,1.92,2.59,2.95,2.62c0.98,0.04,2.44-1.41,2.95-2.53
		c2.29-4.98,4.3-10.08,6.45-15.13c0.65-1.53,1.41-3.02,2.12-4.52c0.33,0.1,0.65,0.2,0.98,0.29c0,7.26,0,14.51,0,21.8
		c2.51,0,4.59,0,6.61,0c0-13.17,0-26.02,0-38.88c-2.87,0-5.12,0-7.32,0c-3.81,8.8-7.5,17.33-11.36,26.27
		c-0.84-1.04-1.12-1.26-1.25-1.55c-2.87-6.36-5.7-12.73-8.57-19.09C250.67,391.11,250.66,391.11,243.57,391.83z M369.99,394.82
		c-0.93,13.39-1.81,26.09-2.71,39.17c2.58,0.3,4.82,0.56,7.55,0.87c0.52-4.88,1.01-9.38,1.46-13.6c4.36-1.26,6.35,0.95,7.54,4.26
		c1.17,3.26,2.2,6.57,3.37,10.12c2.97,0,5.86,0,9.22,0c-2.16-5.65-4.2-11-6.29-16.47c0.79-0.73,1.86-1.55,2.71-2.55
		c6.25-7.44,2.76-18.99-6.3-20.4C381.32,395.42,375.99,395.3,369.99,394.82z M218.29,392.04c-6.22,0.06-10.97,3.39-13.56,9.35
		c-3.5,8.06-3.19,16.21,1.1,23.97c2.88,5.21,7.55,8.02,13.46,7.99c6.37-0.03,11.15-3.25,13.84-8.99c3.92-8.4,3.47-16.81-1.11-24.85
		C229.16,394.49,224.62,392.05,218.29,392.04z M175.86,434.37c0-5.57,0-10.79,0-16.39c4.16,0,8.04,0,12.19,0
		c0.46,5.27,0.89,10.33,1.37,15.81c2.67-0.34,5-0.63,7.59-0.96c-0.75-13.25-1.46-25.93-2.17-38.38c-2.89,0-5.13,0-7.77,0
		c0.25,5.15,0.48,9.89,0.73,15.09c-4.3,0.21-8.35,0.41-12.62,0.62c-0.43-5.29-0.81-10.01-1.23-15.17c-2.85,0.17-5.2,0.32-7.68,0.47
		c0.74,13.43,1.43,26.15,2.15,39.28C171.11,434.6,173.35,434.49,175.86,434.37z M113.85,437.6c-6.73-12.73-13.29-25.14-19.91-37.65
		c-2.41,0.16-4.51,0.29-6.76,0.44c-3.9,13.79-7.72,27.27-11.52,40.71c8.03,2.54,8.03-3.9,9.72-7.77c4.22-0.47,8.03-0.75,11.78-1.36
		c3.42-0.56,5.84,0.2,6.84,3.81c0.79,2.86,2.78,3.41,5.4,2.75C110.53,438.24,111.67,438.04,113.85,437.6z M298.82,414.61
		c3.83,0,7.39,0,10.97,0c0-3,0-5.41,0-8.36c-3.69,0-7.11,0-10.77,0c0-2.28,0-4.02,0-6.28c4.37,0,8.59,0,13.03,0c0-2.9,0-5.28,0-8.02
		c-7.2,0-13.94,0-21.25,0c0,12.97,0,25.69,0,38.97c7.13,0,14.32,0,21.6,0c0-2.53,0-4.92,0-7.88c-4.76,0-9.19,0-13.58,0
		C298.82,420.02,298.82,417.59,298.82,414.61z M455.1,402.38c-1.72,13.15-3.4,25.9-5.13,39.06c7.5,0.96,14.51,1.85,21.88,2.8
		c0.4-2.89,0.73-5.25,1.08-7.79c-4.98-0.82-9.45-1.55-14.18-2.33c0.53-3.06,0.94-5.47,1.4-8.17c3.92,0.33,7.59,0.65,11.53,0.98
		c0.18-2.86,0.33-5.08,0.47-7.38c-4.09-0.69-7.61-1.29-11.33-1.92c0.5-2.33,0.9-4.24,1.33-6.23c4.45,0.48,8.64,0.94,13.18,1.43
		c0.25-2.79,0.45-5.04,0.68-7.67C469.06,404.24,462.51,403.36,455.1,402.38z M505.09,409.74c-4.09-0.89-7.74-2.14-11.46-2.39
		c-6.19-0.41-10.08,2.58-11.59,8.04c-1.77,6.42-0.14,10.69,5.44,13.94c2.15,1.25,4.65,2.03,6.54,3.58c1.16,0.95,2.13,3.05,1.91,4.44
		c-0.17,1.1-2.16,2.43-3.54,2.71c-1.69,0.35-3.78,0.13-5.34-0.6c-2.77-1.29-5.27-3.16-7.85-4.76c-0.2,1.36-0.4,2.84-0.63,4.31
		c-0.74,4.81-0.68,5.29,3.93,7.12c2.89,1.15,6.03,2,9.12,2.23c5.29,0.4,9.25-2.48,11.24-7.43c3-7.47,0.91-12.86-6.39-16.51
		c-1.93-0.96-4.08-1.69-5.67-3.06c-1.04-0.9-1.99-3.05-1.6-4.13c0.39-1.07,2.45-1.77,3.91-2.13c1.02-0.25,2.29,0.22,3.37,0.61
		c2.56,0.93,5.07,1.99,8.1,3.2C504.74,416,504.88,413.41,505.09,409.74z M65.99,404.07c-3.55,0-6.85-0.31-10.06,0.06
		c-6.78,0.79-10.74,4.87-10.94,10.77c-0.25,7.32,3.08,11.49,10.33,12.92c2.28,0.45,4.64,0.64,6.81,1.38c3.32,1.14,3.83,4.48,1,6.53
		c-1.26,0.91-3.1,1.64-4.58,1.48c-3.78-0.39-7.5-1.32-11.3-2.05c0.18,0.74,0.5,1.83,0.71,2.94c1.22,6.35,3.04,7.81,9.67,7.34
		c2.13-0.15,4.29-0.53,6.34-1.15c5.82-1.74,8.16-5.37,8.04-12.08c-0.11-6.42-2.5-9.75-8.33-11.34c-2.55-0.69-5.19-1.05-7.78-1.61
		c-2.04-0.44-4.07-1.21-4.02-3.67c0.06-2.76,2.37-3.56,4.56-3.6c3.56-0.07,7.14,0.3,11,0.49C67.01,409.94,66.54,407.26,65.99,404.07
		z M337.25,392.7c-0.4,7.12-0.9,13.38-1.07,19.66c-0.18,6.42-0.04,12.85-0.04,19.52c1.83,0.19,4.08,0.43,6.69,0.7
		c0.43-5,0.83-9.56,1.26-14.56c2.39,0,4.67,0.02,6.96,0c7.14-0.07,10.51-3.53,11.35-11.65c0.68-6.6-2.29-11.26-8.73-12.36
		C348.48,393.12,343.14,393.13,337.25,392.7z M234.24,90.05c1.88,1.31,3.36,2.39,4.89,3.39c5.43,3.52,10.84,7.08,16.34,10.49
		c2.24,1.39,4.18,0.72,5.2-1.76c1.07-2.6-0.78-3.17-2.68-4.27c-5.96-3.44-11.7-7.28-18.16-11.36c2.17-1.61,3.4-2.69,4.78-3.51
		c4.99-2.98,10.03-5.89,15.06-8.8c1.83-1.06,3.91-1.93,2.93-5.4c-1.69,0.53-3.32,0.73-4.62,1.49c-5.89,3.42-11.84,6.77-17.45,10.62
		c-3.08,2.11-5.17,2.41-8.24-0.08c-4.88-3.97-10.24-7.36-15.4-10.99c-1.76-1.24-3.48-1.43-4.57,0.74c-0.89,1.76-0.94,3.54,1.11,4.73
		c0.86,0.5,1.74,0.99,2.54,1.58c4.75,3.46,9.47,6.95,14.69,10.78c-4.17,2.69-7.79,4.74-11.08,7.23c-2.19,1.66-4.14,3.77-5.75,6.01
		c-0.62,0.86-0.44,2.94,0.21,3.91c1.1,1.64,2.61,0.6,3.79-0.4c1.27-1.08,2.49-2.2,3.74-3.3C225.79,97.42,230.02,93.73,234.24,90.05z
		 M141.25,397.59c-10.62-3.92-19.79-0.4-23.59,5.48c-5.17,7.98-3.81,22.05,2.62,29.43c5.09,5.85,17.17,6.4,24.45,1.39
		c0-2.96,0-6,0-9.19c-9.42,5.43-14.55,5.78-18.81,1.44c-3.85-3.93-5.06-13.16-1.94-17.7c5.14-7.48,11.77-4.45,18.41-1.85
		C141.97,403.3,141.6,400.38,141.25,397.59z M446.99,401.99c-2.36-0.92-4.45-2.1-6.68-2.52c-10.73-2.06-18.99,1.02-22.36,13.32
		c-0.22,0.8-0.52,1.6-0.62,2.41c-1.67,12.71,1.97,26.45,21.54,24.8c3.16-0.27,5.39-1.07,5.74-4.69c0.18-1.92,0.77-3.8,1.28-6.22
		c-6.91,3.11-13.47,5.52-18.91-1.25c-3.26-4.05-3.02-12.7,0.32-16.99c6.14-7.88,12.68-2.96,19.26,0.14
		C446.72,407.94,446.84,405.31,446.99,401.99z M380.71,360.85c0-8.83,0-17.19,0-25.56c-6.35,0-12.39,0-18.42,0
		c0,8.68,0,17.04,0,25.56C368.52,360.85,374.43,360.85,380.71,360.85z M337.33,335.16c0,8.9,0,17.26,0,25.5c6.39,0,12.43,0,18.34,0
		c0-8.72,0-17.08,0-25.5C349.4,335.16,343.48,335.16,337.33,335.16z M134.66,193.72c22.61-9.9,44.5-20.73,68.75-25.11
		c1.05-0.19,2.63-1.94,2.56-2.87c-0.17-2.42-2.41-1.85-3.91-1.53c-6.95,1.48-13.88,3.05-20.78,4.73
		c-15.23,3.72-29.53,9.98-43.82,16.24C133.54,186.9,132.68,189.53,134.66,193.72z M362.13,329.71c6.55,0,12.6,0,18.9,0
		c-0.24-8.15-2.35-15.31-7.59-21.25c-2.9-3.29-6.37-5.74-11.32-3.95C362.13,312.88,362.13,321.12,362.13,329.71z M356.02,329.83
		c0-4.67,0-8.8,0-12.93c0-4.25,0-8.51,0-12.71c-11.14-0.55-21.09,13.89-18.3,25.65C343.63,329.83,349.54,329.83,356.02,329.83z
		 M403.65,397.11c-1.16,13.42-2.26,26.05-3.39,39.12c2.72,0.25,5.09,0.47,7.83,0.72c1.13-13.23,2.2-25.88,3.31-38.84
		C408.84,397.77,406.6,397.49,403.65,397.11z M131.46,349.14c0,6.54,0,12.58,0,18.63c4.62,0,8.87,0,13.31,0c0-6.3,0-12.35,0-18.63
		C140.26,349.14,136.01,349.14,131.46,349.14z M126.59,367.9c0-6.53,0-12.58,0-18.59c-4.69,0-9.05,0-13.6,0c0,3.37,0,6.35,0,9.33
		c0,3.07,0,6.15,0,9.27C117.88,367.9,122.02,367.9,126.59,367.9z M144.73,344.88c0.62-11.02-5.55-19.41-13.36-18.39
		c0,6.04,0,12.1,0,18.39C135.88,344.88,140.13,344.88,144.73,344.88z M113.39,344.82c4.6,0,8.85,0,13.25,0c0-6.36,0-12.43,0-18.47
		C118.55,325.71,112.39,334.36,113.39,344.82z M174.93,200.31c-9.52-4.53-19.21-6.49-29.09-7.7c-2.09-0.26-3.95,0.26-4.61,2.48
		c8.92,2.61,17.8,5.03,26.54,7.85C170.85,203.92,172.8,203.36,174.93,200.31z M204.01,267.7c-1.12,0.54-1.89,0.83-2.57,1.27
		c-3.31,2.18-3.3,4.01,0.28,5.56c1.92,0.84,4.14,1.5,6.2,1.44c5.78-0.19,11.63-0.33,17.3-1.36c7.09-1.3,14-3.5,20.29-7.27
		c-4.54,0.83-8.93,2.19-13.39,3.23c-7.77,1.81-15.58,3.42-23.62,1.73C206.09,271.78,203.71,271.29,204.01,267.7z M163.82,185.36
		c9.13,1.95,18.23,3.67,27.19,5.91c3.46,0.86,5.65,0.19,7.71-2.78c-1.68-0.55-3.03-1.18-4.45-1.44c-7.78-1.38-15.56-2.74-23.37-3.93
		C168.27,182.73,165.6,182.94,163.82,185.36z M219.48,180.95c-0.04-0.72-0.07-1.44-0.11-2.16c-3.34-0.38-6.89-0.19-9.98-1.28
		c-6.05-2.12-12.2-2.53-18.44-2.34c-1.65,0.05-3.26,1.16-5.25,1.92c10.05,1.7,19.27,3.34,28.53,4.73
		C215.91,182.07,217.73,181.27,219.48,180.95z M306.87,57.64c0.47,0.2,0.94,0.39,1.41,0.59c0.84-0.85,2.34-1.65,2.4-2.55
		c0.29-4.1,0.26-8.23,0.11-12.34c-0.02-0.65-1.23-1.69-1.94-1.74c-0.68-0.04-1.98,0.93-2.05,1.55
		C306.3,47.99,305.78,52.86,306.87,57.64z M320.27,41.46c-0.63-0.02-1.26-0.04-1.89-0.07c-2.12,4.47-1.86,9.42-2.23,14.21
		c-0.05,0.62,1.74,2.07,2.14,1.9c0.98-0.43,2.31-1.56,2.33-2.44C320.71,50.53,320.43,46,320.27,41.46z M330.66,39.9
		c-1.8,1.37-3.42,2.08-3.38,2.67c0.37,5.03-1.79,10.4,1.75,15.09C332.15,52.31,330.66,46.75,330.66,39.9z M330,247.26
		c4.19-1.02,7.5-1.83,10.81-2.65c0.13-0.03,0.24-0.13,0.35-0.2c-0.02,0.06-0.05,0.13-0.07,0.19
		C337.89,246.43,333.35,241.45,330,247.26z M64.88,354.43c-0.11-0.13-0.2-0.23-0.3-0.34c-0.11,0.2-0.25,0.38-0.3,0.59
		c-0.02,0.07,0.17,0.2,0.26,0.31C64.65,354.81,64.77,354.61,64.88,354.43z"/>
	<path class="st2" d="M64.88,354.43c-0.11,0.18-0.22,0.37-0.34,0.57c-0.09-0.1-0.28-0.23-0.26-0.31c0.05-0.21,0.2-0.4,0.3-0.59
		C64.67,354.2,64.77,354.3,64.88,354.43z"/>
	<path class="st1" d="M332.56,127.93c-3.61-3.32-7.23-6.64-10.73-9.86c2.6-4.96,9.03-6.54,9.58-13.57
		c-6.13,1.88-8.57,7.33-14.18,9.85c-2.03-2.3-4.23-4.79-6.43-7.27c-1.34-1.51-2.85-3.49-4.94-1.64c-2.53,2.24-0.04,3.83,1.39,5.28
		c2.32,2.34,4.78,4.55,7.38,7.01c-3.34,2.85-6.59,5.62-10.5,8.96c-1.64-11.15-1.04-21.55-1.2-31.53c4.55-3.36,8.83-6.54,13.59-10.05
		c3.82,3.32,7.62,6.64,11.55,10.06c2.93-2.36,1.75-4.12-0.16-5.84c-2.33-2.09-4.68-4.18-7.38-6.59c4.69-3.58,8.94-6.84,13.05-9.98
		c0,18.15,0,36.34,0,54.53C333.25,127.51,332.91,127.72,332.56,127.93z M332.57,96.94c-8.66,0-17.08-0.09-25.51,0.11
		c-1,0.02-1.97,1.59-2.95,2.44c1.03,0.81,2.03,1.66,3.1,2.42c0.22,0.16,0.65,0.02,0.98,0.02c7.13,0.01,14.27-0.06,21.4,0.08
		C333.01,102.08,333.54,100.46,332.57,96.94z"/>
	<path class="st1" d="M283.03,187.04c-2.67,2.88-2.67,2.88-1.96,9.08c6.11-3.48,11.99-6.83,17.87-10.17
		c0.13,0.15,0.25,0.31,0.36,0.48c-0.55,5.74-1.1,11.47-1.69,17.55c-6.12,1.61-13.18,2.19-16.99,9.11c-0.29-0.15-0.59-0.3-0.88-0.45
		c0-21.45,0-42.89,0-64.73c0.4,0.06,1.05,0.37,1.47,0.17c6.01-2.85,12.04-1.99,18.1-0.21c0.45,0.13,0.99-0.01,1.49-0.03
		c0.22,0.22,0.42,0.46,0.6,0.7c-3.19,1.4-6.37,2.8-9.49,4.17c-3.19-2.95-6.86-3.56-10.65-3.76c-0.17,0.45-0.35,0.9-0.52,1.35
		c2.56,1.05,5.11,2.1,8.09,3.32c-2.61,1.28-5.56,1.92-7.13,3.74c-1.48,1.72-1.51,4.69-2.41,7.94c2.55-0.66,3.9-1.01,6.15-1.59
		c-1.89,7.9-3.66,15.33-5.54,23.21c1.15-0.1,1.9-0.16,2.64-0.23C282.72,186.79,282.88,186.9,283.03,187.04z"/>
	<path class="st1" d="M322.94,146.94c-1.46,3.78-2.91,7.57-4.37,11.35c-0.21-0.01-0.43-0.03-0.64-0.04c0-2.67,0-5.34,0-8.02
		c-4.51,3.24-3.74,8.77-6.97,13.32c0-3.94,0-7.15,0-10.65c-2.92,0.54-2.85,2.37-2.86,4.19c-0.01,2.3-0.06,4.61-0.1,6.91L308,164
		c-1.71-2.51-3.43-5.02-5.49-8.04c-3.26,4.24-0.45,9.05-2.02,13.86c-1.83-3.61-3.44-6.78-5.37-10.59c-3.79,3.7-1.03,8.17-2.51,12.25
		c-1.88-3.12-3.67-6.08-5.59-9.26c11.32-5.32,23.11-11.49,35.98-15.19L322.94,146.94z"/>
	<path class="st1" d="M304.95,137.04c8.32,0.17,16.64,0.35,24.95,0.52c0.03,0.38,0.05,0.75,0.08,1.13
		c-2.99,0.78-5.98,1.56-8.97,2.34c-2.36-3.46-5.29-4.03-11.48-1.8c4.32,0.65,7.93,1.2,11.54,1.74c-6.55,2.52-13.11,5.04-19.66,7.56
		c-0.19-0.25-0.39-0.48-0.6-0.7c-0.68-0.89-1.19-2.23-2.08-2.57c-1.43-0.54-3.11-0.43-5.14-0.63c6.18-5,12.45,0.11,18.39-0.68
		c0.08-0.39,0.16-0.78,0.23-1.17c-2.28-0.68-4.57-1.36-6.95-2.07c-0.07-1.23-0.15-2.49-0.22-3.75L304.95,137.04z"/>
	<path class="st1" d="M323,147.01c3.27-1.38,6.54-2.75,10.49-4.42c0,4.3,0,7.98,0,11.79c-0.93-2.78-1.87-5.62-2.93-8.8
		c-4.31,2.48-3.35,6.94-5.73,10.72c0-2.51-0.01-4.29,0-6.06c0.02-1.48,0.33-3.12-1.9-3.3C322.94,146.94,323,147.01,323,147.01z"/>
	<path class="st1" d="M347.11,141.76c1.48,2.56,2.97,5.11,4.47,7.71c-1.8,1.22-3.54,2.41-5.33,3.63c0-3.8,0-7.51,0-11.22
		C346.54,141.85,346.83,141.81,347.11,141.76z"/>
	<path class="st1" d="M309.15,173.35c-1.83,0.7-3.17,1.21-4.97,1.89c0-3.81,0-7.18,0-11.71
		C306.03,167.19,307.46,170.01,309.15,173.35z"/>
	<path class="st1" d="M294.12,181.17c-2,1-3.44,1.72-5.15,2.57c0-3.58,0-6.86,0-10.13c0.24-0.15,0.48-0.29,0.73-0.44
		C291.1,175.7,292.5,178.23,294.12,181.17z"/>
	<path class="st1" d="M325.05,165.05c-0.14-3.82,0.71-7.3,3.62-10.89c0,3.35,0,6.02,0,9.19c-1.03,0.46-2.34,1.05-3.66,1.64
		L325.05,165.05z"/>
	<path class="st1" d="M316.03,169.84c-1.02,0.39-2.19,0.84-4.58,1.75c1.44-4.29,2.55-7.59,3.65-10.9c0.31,0.07,0.62,0.14,0.93,0.21
		C316.03,163.65,316.03,166.41,316.03,169.84z"/>
	<path class="st1" d="M325,165c-1.98,1.1-3.96,2.2-7.03,3.91c1.34-4.6,2.35-8.04,3.36-11.48c0.31,0.04,0.62,0.07,0.93,0.11
		c0,1.74,0.08,3.48-0.02,5.21c-0.12,2.14,1.13,2.45,2.81,2.31L325,165z"/>
	<path class="st1" d="M282.54,186.69c0.97-3.81,1.94-7.61,3.15-12.39c0.25,4.18,0.45,7.36,0.68,11.2c-0.79,0.37-2.07,0.95-3.34,1.54
		C282.88,186.9,282.72,186.79,282.54,186.69z"/>
	<path class="st1" d="M296.86,179.54c0-3.26,0-5.66,0-9.35c1.9,2.69,3.18,4.5,4.68,6.62C300.05,177.68,298.85,178.38,296.86,179.54z
		"/>
	<path class="st1" d="M355.42,141.19c-0.21-2.28-4.3-4.32,0.64-7.7c0.19,3.07,0.32,5.35,0.46,7.64
		C356.15,141.14,355.78,141.16,355.42,141.19z"/>
	<path class="st1" d="M359.95,138.98c0.46,1.54,0.92,3.09,1.47,4.93c-0.87,0.54-1.81,1.11-3.2,1.97c0-2.54-0.01-4.64,0.08-6.74
		c0-0.06,1.12-0.07,1.72-0.1L359.95,138.98z"/>
	<path class="st1" d="M360.01,139.05c-0.47-1.92-0.95-3.84-1.47-5.99c0.74-0.29,1.76-0.7,2.93-1.16c0.14,2.1,0.41,3.87,0.28,5.62
		c-0.04,0.53-1.17,0.98-1.8,1.47L360.01,139.05z"/>
	<path class="st1" d="M353.52,141.9c1.44,2.16,2.22,3.34,3.16,4.75c-0.99,0.58-1.9,1.12-3.16,1.87
		C353.52,146.38,353.52,144.7,353.52,141.9z"/>
	<path class="st1" d="M350.84,136.35c0,2.32,0,4.13,0,5.98C347.39,138.86,347.37,138.56,350.84,136.35z"/>
	<path class="st1" d="M331.21,155.36c1.06,2.15,1.83,3.72,2.74,5.58c-0.75,0.3-1.57,0.63-2.74,1.1
		C331.21,159.71,331.21,157.68,331.21,155.36z"/>
	<path class="st1" d="M366.76,129.73c-0.97,2.59-1.58,4.24-2.41,6.45c-0.33-1.85-0.57-3.17-0.87-4.86
		C364.18,130.99,365.11,130.53,366.76,129.73z"/>
	<path class="st1" d="M364.97,141.96c0.28-1.67,0.56-3.33,0.84-5c0.36,0.08,0.71,0.16,1.07,0.24c-0.55,1.62,1.6,3.96-1.87,4.81
		L364.97,141.96z"/>
	<path class="st1" d="M298.95,185.94c0.44-0.19,0.87-0.38,1.31-0.57c-0.32,0.35-0.63,0.7-0.95,1.05
		C299.2,186.25,299.08,186.09,298.95,185.94z"/>
	<path class="st1" d="M308,164c0.28,0.35,0.56,0.7,0.83,1.05c-0.19,0.1-0.39,0.2-0.58,0.3C308.17,164.9,308.08,164.45,308,164
		L308,164z"/>
	<path class="st1" d="M365,142.01c-0.2,0.22-0.39,0.44-0.59,0.67c-0.07-0.15-0.13-0.3-0.2-0.45c0.25-0.09,0.5-0.18,0.75-0.27
		C364.97,141.96,365,142.01,365,142.01z"/>
	<path class="st1" d="M242.03,180.02c7.55-3.29,15.09-6.58,22.92-10c0,9.48,0,18.89,0,28.15c-6.44,3.36-12.8,6.69-19.64,10.27
		c4.5-12.6,11.41-23.01,19.14-33.05c-2.5-2.63-4.22-1.24-5.52,0.56c-3.11,4.3-6.06,8.72-9,13.14c-1.42,2.14-2.67,4.4-4.86,6.38
		c0-4.06-0.08-8.12,0.03-12.18c0.06-2.29-0.74-3.48-3.13-3.34C241.96,179.95,242.03,180.02,242.03,180.02z"/>
	<path class="st1" d="M178.46,250.5c0.54-2.2,1.49-4.4,1.54-6.61c0.19-8.09,0.07-16.19,0.07-24.68
		c6.73,6.03,13.19,11.81,19.87,17.78c-6.47,4.43-13.62,9.32-20.76,14.21C178.93,250.96,178.7,250.73,178.46,250.5z"/>
	<path class="st1" d="M202.68,225.2c0-8.9,0-17.8,0-27.01c5.61-2.77,11.2-5.54,17.77-8.79c-5.94,12.73-11.44,24.51-16.94,36.29
		C203.24,225.52,202.96,225.36,202.68,225.2z"/>
	<path class="st1" d="M197.47,227.19c-7.19-5.36-11.97-12.47-20.33-15.73c6.79-3.58,13.45-7.1,20.33-10.73
		C197.47,209.84,197.47,218.51,197.47,227.19z"/>
	<path class="st1" d="M241.56,210.65c-5.1,2.94-10.62,6.12-17.08,9.85c3.68-11.26,10.15-19.8,16.15-29.91
		C240.96,197.69,241.24,203.75,241.56,210.65z"/>
	<path class="st1" d="M239.98,180.97c-1.29,2.78-2.41,5.65-3.91,8.31c-3.45,6.14-7.07,12.18-10.87,18.66
		c-1.74-6.45,1.83-13.48-3.73-19.16c5.83-2.45,12.18-5.11,18.53-7.78C240,181,239.98,180.97,239.98,180.97z"/>
	<path class="st1" d="M221.93,221.96c-6.39,4.34-12.77,8.68-19.1,12.99c5.63-10.48,11.24-20.92,17.33-32.26
		c0,5.77-0.07,10.64,0.05,15.52c0.03,1.41-0.97,3.57,1.78,3.81C221.99,222.02,221.93,221.96,221.93,221.96z"/>
	<path class="st1" d="M221.99,222.02c0.45-0.34,0.89-0.68,1.34-1.02c0.04,0.06,0.07,0.11,0.11,0.17c-0.5,0.26-1,0.53-1.5,0.79
		L221.99,222.02z"/>
	<path class="st1" d="M241.96,179.95c-0.66,0.34-1.32,0.68-1.98,1.02c0,0,0.02,0.03,0.02,0.03c0.67-0.33,1.35-0.66,2.02-0.99
		C242.03,180.02,241.96,179.95,241.96,179.95z"/>
	<path class="st1" d="M377.06,413.06c0-3.1,0-5.84,0-8.99c2.5,0,4.76-0.16,6.98,0.04c2.58,0.24,4.24,1.51,4.23,4.46
		c-0.01,3-1.33,4.79-4.31,4.92C381.72,413.59,379.46,413.23,377.06,413.06z"/>
	<path class="st1" d="M209.82,410.81c1.16-2.36,2-5.78,4.1-8.02c3.76-4,10.28-2.09,12.55,3.34c1.64,3.92,1.92,8.01,0.58,12.14
		c-1.22,3.73-3.98,6-7.54,6.15c-3.76,0.15-6.62-1.6-7.99-5.44C210.71,416.68,210.5,414.16,209.82,410.81z"/>
	<path class="st1" d="M87.13,425.68c1.41-5.01,2.68-9.54,4.15-14.8c2.47,4.83,4.56,8.93,6.99,13.69
		C94.37,424.96,91.05,425.29,87.13,425.68z"/>
	<path class="st1" d="M344.45,401.41c3.73,1.03,7.58-1.29,9.53,2.57c0.67,1.32,0.51,3.99-0.42,5c-2.34,2.55-5.65,1.85-9.11,1.25
		C344.45,407.53,344.45,404.88,344.45,401.41z"/>
</g>
<path class="st3" d="M360.95,243.2c41.42,43.4,82.76,86.71,124.85,130.8c-4.69,0-8.32,0.32-11.86-0.14
	c-1.72-0.22-3.51-1.62-4.84-2.93c-30-29.38-59.98-58.78-89.87-88.27c-6.27-6.19-12.16-12.78-18.4-19.37
	c-45.09,32.18-89.28,63.71-133.84,95.5c-30.85-16.57-61.74-33.16-93.01-49.95c-22.49,15.09-45.12,30.26-67.74,45.44
	c-0.32-0.39-0.64-0.79-0.96-1.18c22.89-21.6,45.78-43.21,68.78-64.92c22.38,4.79,44.69,9.56,67,14.35
	c6.47,1.39,12.91,2.94,19.41,4.13c1.64,0.3,3.66-0.08,5.21-0.8c27.17-12.52,54.29-25.14,81.43-37.73
	C324.93,259.87,342.75,251.63,360.95,243.2z"/>
<path class="st4" d="M304.95,137.04c0-1.46,0-2.91,0-4.65c1.78-0.22,3.06-0.52,4.33-0.5c6.66,0.11,13.32,0.33,19.99,0.45
	c2.82,0.05,4.63,0.81,3.91,4.18c0-1.72,0-3.43,0-5.16c-6.86-0.7-10.78-6.14-15.41-10.03c-4.48,3.28-8.9,6.44-13.22,9.74
	c-0.7,0.54-0.92,1.69-1.38,2.56c-1.17,2.22-2.87,3.59-6.18,3.51c-0.27-2.35-0.73-4.74-0.78-7.14c-0.51-23.48-0.92-46.97-1.42-70.45
	c-0.19-8.99-0.37-17.98-0.89-26.95c-0.27-4.64,1.88-7.05,6.6-8.92c0.37,2.17,0.92,3.98,0.95,5.8c0.26,13.3,0.37,26.6,0.63,39.9
	c0.13,6.65,0.47,13.3,0.74,20.8c3.69-3.16,6.84-5.86,10.13-8.68c-2.11-2.42-4.02-4.72-6.06-6.91c-2.09-2.25-2.4-4.26,1.02-6.55
	c3.04,3.53,6.12,7.09,9.34,10.83c5.22-3.48,10.24-6.83,15.31-10.13c0.15-0.1,0.72,0.46,1.34,0.87c0-1.54,0-2.78,0-3.69
	c-2.21,0.33-4.23,0.92-6.24,0.88c-6.65-0.12-13.3-0.45-19.94-0.73c-4.12-0.18-4.6-0.75-4.52-5.5c10.06,0,20.14,0,30.7,0
	c1.73-7.07,0.91-14.01,1.1-20.4c-10.59,0-20.97,0-31.78,0c-0.16-1.66-0.29-3.04-0.49-5.07c11.13-0.37,21.85-0.73,33.12-1.1
	c1.27-2.44-2.05-7.68,3.4-9.82c-0.55,49.54-1.1,98.74-1.64,147.95c0.47,0,0.94,0.01,1.41,0.01c0-13.53-0.14-27.06,0.03-40.58
	c0.21-16.49,0.54-32.97,1.06-49.45c0.49-15.47,1.26-30.94,2-46.4c0.13-2.63,0.5-5.32,1.23-7.84c0.81-2.78,2.21-5.37,6.67-4.36
	c-0.96,16.89-2.19,33.87-2.83,50.86c-0.65,17.11-0.73,34.25-1.07,51.5c4.24-0.45,7.89-0.84,11.55-1.23
	c-2.65,4.64-7.78,3.34-11.24,6.17c0,1.98,0,4.12,0,6.25c-0.28-3.14,1.54-4.64,4.26-5.58c5.16-1.79,10.27-3.69,15.41-5.53
	c2.61-0.94,2.84-0.05,2.74,2.55c-0.17,4.29,0.6,8.62,0.75,12.93c0.04,1.24-0.26,3.15-1.09,3.67c-7.26,4.59-14.68,8.93-22.68,13.72
	c0,17.32,0,35.09,0,53.61c5.32-0.98,11.12-1.89,16.85-3.16c5.62-1.25,11.78-0.22,17.7-4.21c-10.58-3.98-20.8-2.42-31.73-2.27
	c1-0.86,1.5-1.56,1.76-1.48c4.99,1.51,9.72-1.38,14.73-0.72c4.92,0.65,9.99,0.15,14.94,0.63c4.01,0.39,8.29,0.87,10.43,5.37
	c-2.32,3.37-5.79,3.18-9.03,3.51c-17.8,1.84-35.66,3.31-53.02,7.98c-3.82,1.03-7.59,2.4-11.19,4.04c-1.4,0.64-2.26,2.46-3.36,3.74
	c1.31,0.79,2.58,2.17,3.95,2.28c9.75,0.76,19.52,1.45,29.3,1.78c8.48,0.28,16.99,0.06,25.59,0.94c-1.7,0.25-3.4,0.69-5.1,0.73
	c-18.15,0.49-36.3,0.95-54.46,1.31c-3.49,0.07-7.08,0.07-10.43-0.7c-2.01-0.46-4.72-2.22-5.15-3.89c-0.37-1.44,1.65-4.54,3.32-5.26
	c4.98-2.13,10.24-3.76,15.52-5.02c7.7-1.84,15.53-3.18,23.39-4.75c0-2.78,0-5.25,0-8.47c-0.9,1.29-1.44,2.07-1.98,2.85
	c-2.1-2.11-2.78-5.45-2.86-12.73c-0.05-4.66-0.4-9.31-0.49-13.97c-0.09-4.61-0.02-9.21-0.02-14.95c-6.79,3.6-12.52,6.52-18.13,9.65
	c-3.88,2.17-8.95,3.8-11,7.19c-1.95,3.21-0.69,8.39-0.79,12.7c-0.05,2.29-0.01,4.58-0.01,7.51c7.28-0.68,14.15-1.32,21.02-1.95
	c0.05,0.33,0.1,0.65,0.15,0.98c-6.87,1.02-13.74,2.05-20.55,3.06c-1.38,2.01,0.46,6.03-3.24,5.91c-1.67-0.05-3.27-2.31-5.69-4.17
	c-1.13,0.58-3.46,1.47-5.39,2.89c-1.04,0.77-2.07,2.61-1.84,3.7c0.21,1.02,2.03,2.25,3.26,2.4c3.58,0.44,7.22,0.44,10.83,0.48
	c1.61,0.02,3.23-0.27,5.44-0.48c-7.27,4.71-20.14,4.66-29.16-0.19c0,10.21-0.08,19.98,0.02,29.75c0.08,7.49,0.37,14.97,0.58,22.46
	c0.07,2.34-0.81,3.88-3.32,4.08c-2.76,0.22-3.37-1.7-3.51-3.81c-0.22-3.49-0.33-6.98-0.39-10.48c-0.37-23.31-0.77-46.62-1.06-69.93
	c-0.25-19.98-0.72-39.97-0.48-59.95c0.41-34.81,1.26-69.61,1.99-104.42c0.07-3.48,0.54-6.95,0.93-10.42
	c0.11-0.97,0.53-1.92,0.93-2.83c1.27-2.89,3.96-4.64,6.18-3.92c3.04,0.98,4.02,3.24,3.59,6.26c-3.86,27.28-2.53,54.81-3.82,82.22
	c-0.69,14.64-0.72,29.3-1.04,43.96c-0.04,1.64,0,3.28,0,5.14c7.3-2.23,14.22-4.39,21.18-6.44c1.23-0.36,2.58-0.28,3.88-0.41
	c0.08,1.26,0.15,2.53,0.22,3.75c2.38,0.71,4.66,1.39,6.95,2.07c-0.08,0.39-0.16,0.78-0.23,1.17c-5.94,0.79-12.21-4.32-18.39,0.68
	c2.03,0.21,3.71,0.09,5.14,0.63c0.89,0.34,1.4,1.68,2.08,2.57c-0.5,0.02-1.04,0.16-1.49,0.03c-6.06-1.78-12.09-2.64-18.1,0.21
	c-0.41,0.2-1.07-0.12-1.47-0.17c0,21.84,0,43.28,0,64.73c0.29,0.15,0.59,0.3,0.88,0.45c3.81-6.92,10.87-7.5,16.99-9.11
	c0.58-6.07,1.14-11.81,1.69-17.55c0.32-0.35,0.63-0.7,0.95-1.05c-0.44,0.19-0.87,0.38-1.31,0.57c-5.88,3.35-11.76,6.7-17.87,10.17
	c-0.72-6.2-0.72-6.2,1.96-9.08c1.27-0.59,2.55-1.17,3.34-1.54c-0.23-3.84-0.43-7.02-0.68-11.2c-1.22,4.78-2.18,8.59-3.15,12.39
	c-0.74,0.06-1.49,0.13-2.64,0.23c1.88-7.89,3.66-15.32,5.54-23.21c-2.25,0.58-3.61,0.93-6.15,1.59c0.9-3.25,0.93-6.22,2.41-7.94
	c1.57-1.82,4.52-2.46,7.13-3.74c-2.98-1.22-5.53-2.27-8.09-3.32c0.17-0.45,0.35-0.9,0.52-1.35c3.78,0.2,7.45,0.8,10.65,3.76
	c3.12-1.37,6.31-2.77,9.49-4.17c6.55-2.52,13.11-5.04,19.66-7.56l-0.06,0.06c2.99-0.78,5.98-1.56,8.97-2.34
	c-0.03-0.38-0.05-0.75-0.08-1.13C321.58,137.39,313.27,137.21,304.95,137.04z M365,142.01c3.47-0.85,1.32-3.19,1.87-4.81
	c-0.36-0.08-0.71-0.16-1.07-0.24c-0.28,1.67-0.56,3.33-0.84,5c-0.25,0.09-0.5,0.18-0.75,0.27c0.07,0.15,0.13,0.3,0.2,0.45
	C364.61,142.45,364.81,142.23,365,142.01z M360.01,139.05c-0.6,0.03-1.72,0.04-1.72,0.1c-0.09,2.1-0.08,4.2-0.08,6.74
	c1.4-0.86,2.33-1.44,3.2-1.97c-0.55-1.85-1.01-3.39-1.47-4.93c0.63-0.49,1.76-0.94,1.8-1.47c0.13-1.74-0.14-3.52-0.28-5.62
	c-1.17,0.46-2.19,0.87-2.93,1.16C359.07,135.2,359.54,137.12,360.01,139.05z M325,165c1.32-0.59,2.63-1.18,3.66-1.64
	c0-3.17,0-5.84,0-9.19c-2.91,3.59-3.76,7.08-3.62,10.89c-1.68,0.14-2.93-0.16-2.81-2.31c0.1-1.73,0.02-3.47,0.02-5.21
	c-0.31-0.04-0.62-0.07-0.93-0.11c-1.01,3.44-2.01,6.88-3.36,11.48C321.04,167.2,323.02,166.1,325,165z M308,164
	c0.09,0.45,0.17,0.89,0.26,1.34c0.19-0.1,0.39-0.2,0.58-0.3C308.56,164.7,308.28,164.35,308,164c0.04-2.31,0.09-4.61,0.1-6.92
	c0.01-1.81-0.06-3.64,2.86-4.19c0,3.5,0,6.7,0,10.65c3.23-4.54,2.46-10.08,6.97-13.32c0,2.67,0,5.34,0,8.02
	c0.21,0.01,0.43,0.03,0.64,0.04c1.46-3.78,2.91-7.57,4.37-11.35c2.23,0.18,1.91,1.81,1.9,3.3c-0.02,1.78,0,3.55,0,6.06
	c2.38-3.78,1.42-8.23,5.73-10.72c1.06,3.18,2,6.02,2.93,8.8c0-3.81,0-7.49,0-11.79c-3.95,1.66-7.22,3.04-10.49,4.42
	c-12.86,3.71-24.66,9.87-35.98,15.19c1.92,3.19,3.7,6.14,5.59,9.26c1.48-4.08-1.28-8.55,2.51-12.25c1.93,3.81,3.53,6.98,5.37,10.59
	c1.57-4.81-1.24-9.62,2.02-13.86C304.57,158.98,306.28,161.49,308,164z M332.56,127.93c0.34-0.21,0.69-0.42,1.03-0.64
	c0-18.19,0-36.39,0-54.53c-4.1,3.14-8.36,6.4-13.05,9.98c2.7,2.41,5.05,4.5,7.38,6.59c1.91,1.71,3.09,3.47,0.16,5.84
	c-3.93-3.42-7.73-6.73-11.55-10.06c-4.76,3.52-9.05,6.69-13.59,10.05c0.16,9.98-0.44,20.38,1.2,31.53c3.91-3.34,7.16-6.11,10.5-8.96
	c-2.61-2.46-5.06-4.66-7.38-7.01c-1.43-1.45-3.92-3.04-1.39-5.28c2.09-1.85,3.6,0.13,4.94,1.64c2.2,2.48,4.39,4.97,6.43,7.27
	c5.61-2.52,8.05-7.97,14.18-9.85c-0.55,7.02-6.98,8.6-9.58,13.57C325.34,121.3,328.95,124.61,332.56,127.93z M347.11,141.76
	c-0.29,0.04-0.57,0.08-0.86,0.12c0,3.71,0,7.42,0,11.22c1.79-1.22,3.54-2.41,5.33-3.63C350.08,146.88,348.6,144.32,347.11,141.76z
	 M309.15,173.35c-1.69-3.34-3.12-6.16-4.97-9.82c0,4.52,0,7.89,0,11.71C305.98,174.56,307.32,174.05,309.15,173.35z M294.12,181.17
	c-1.62-2.94-3.03-5.47-4.43-8c-0.24,0.15-0.48,0.29-0.73,0.44c0,3.28,0,6.56,0,10.13C290.68,182.89,292.13,182.16,294.12,181.17z
	 M316.03,169.84c0-3.43,0-6.18,0-8.94c-0.31-0.07-0.62-0.14-0.93-0.21c-1.11,3.31-2.22,6.61-3.65,10.9
	C313.84,170.67,315,170.23,316.03,169.84z M296.86,179.54c1.99-1.16,3.19-1.86,4.68-2.74c-1.5-2.12-2.78-3.93-4.68-6.62
	C296.86,173.89,296.86,176.29,296.86,179.54z M355.42,141.19c0.37-0.02,0.73-0.05,1.1-0.07c-0.14-2.28-0.28-4.57-0.46-7.64
	C351.12,136.87,355.2,138.91,355.42,141.19z M353.52,141.9c0,2.8,0,4.48,0,6.62c1.27-0.75,2.17-1.28,3.16-1.87
	C355.74,145.24,354.95,144.06,353.52,141.9z M350.84,136.35c-3.47,2.21-3.44,2.51,0,5.98C350.84,140.48,350.84,138.67,350.84,136.35
	z M331.21,155.36c0,2.33,0,4.35,0,6.69c1.17-0.47,1.99-0.8,2.74-1.1C333.04,159.08,332.27,157.51,331.21,155.36z M366.76,129.73
	c-1.65,0.8-2.58,1.25-3.28,1.59c0.3,1.69,0.54,3.01,0.87,4.86C365.17,133.97,365.79,132.32,366.76,129.73z"/>
<path class="st4" d="M178.46,250.5c-0.75-0.15-1.78-0.05-2.21-0.5c-5.02-5.31-9.88-10.76-14.92-16.05
	c-2.03-2.13-2.91-4.34-1.85-7.75c6.03,2.64,9.57,8.19,15.17,11.59c0-8.3,0-16.4,0-25.42c-4.56,3.17-8.7,6.05-12.87,8.95
	c-1.3-5.19,0.98-10.81,5.13-13.04c23.3-12.46,47.22-23.6,71.62-33.72c1.2-0.5,2.36-1.08,3.54-1.62c0,0-0.07,0.07-0.07,0.07
	c5.75-2.09,11.5-4.18,17.48-6.35c-0.35-0.49-0.53-1.05-0.82-1.12c-13.01-2.93-26.09-4.92-39.46-2.74c-0.82,0.13-1.98,0.45-2.44,0.05
	c-3.68-3.13-7.22-1.22-10.83,0.02c-0.4,0.14-0.95-0.14-1.95-0.33c-0.24-3.85-0.6-7.76-0.72-11.68c-0.45-14.31-0.83-28.62-1.23-42.93
	c-0.66-23.47-1.34-46.94-1.95-70.41c-0.18-6.83-0.23-13.66-0.21-20.49c0.01-4.15,1.28-5.6,4.56-5.78c3.45-0.18,5.07,1.5,5.27,5.73
	c0.13,2.81,0.02,5.63,0.02,8.53c17.89-0.59,35.55-1.18,53.09-1.76c1.99,9.17,1.99,9.17-6.9,9.68c-0.45,7.69,2.08,15.57-1.8,22.95
	c1.14,0,2.43,0.01,3.72,0c5.17-0.04,5.95,0.76,5.24,5.76c-0.21,1.46-0.8,2.87-1.35,4.74c-16.89,0-33.76,0-50.95,0
	c0-1.68-0.15-3,0.03-4.27c0.41-2.94,1.69-4.6,5.17-4.67c10.97-0.23,21.94-0.83,32.9-1.3c0.62-0.03,1.24-0.23,1.45-0.27
	c0.72-7.93-2.49-15.99,2.94-23.14c-4.64,0.26-9.26,0.53-13.29,0.76c0,5.64,0.15,11.06-0.05,16.47c-0.15,4.03-1.33,5-6.09,5.44
	c0.54-7.2-1.16-14.41,1.27-21.69c-3.74,0-7.92,0-12.11,0c0.29,5.37,0.77,10.75,0.82,16.13c0.04,4.37-1.12,5.55-5.49,6.54
	c-0.15-1.27-0.36-2.5-0.44-3.74c-0.2-3.31-0.2-6.65-0.55-9.94c-0.34-3.22-0.71-6.33,3.19-9c-4.09,0-7.11,0-10.51,0
	c-0.13,40.4,0.47,80.75,3.16,120.52c14.2-2.32,28.61,0.4,43.85,0.03c-6.22-7.6-13.49-13.26-20.57-20.35
	c-6.25,6.45-12.2,12.59-18.2,18.78c-2.74-1.92-2.08-4.02-0.44-5.97c3.32-3.94,6.75-7.78,10.17-11.63c1.21-1.36,2.56-2.6,4.54-4.59
	c-6.36-3.58-12.38-6.97-18.4-10.36c-1.49-0.84-3.12-1.65-2.11-3.79c0.92-1.96,2.28-3.38,4.72-2.43c1.08,0.42,2.14,0.91,3.14,1.5
	c6.01,3.52,12,7.08,18.03,10.64c5.68-3.09,11.61-6.42,17.65-9.53c1.57-0.81,3.86-2.55,5.05,0.38c0.96,2.36-0.52,4.14-2.62,5.22
	c-5.01,2.56-10.05,5.05-15.23,7.64c6.62,6.79,12.85,13.16,19.33,19.81c-0.87,1.45-1.69,2.83-2.64,4.41
	c4.84,1.96,2.67,6.8,4.13,10.44c1.27-8.81,0.4-17.59,0.41-26.35c0.01-8.98,0-17.96,0-26.42c-1.77,0.54-3.53,1.54-5.28,1.52
	c-14.15-0.12-28.3-0.42-42.45-0.69c-3.34-0.06-4.5-1.15-3.88-3.46c0.6-2.19,2.24-2.58,4.23-2.63c10.32-0.28,20.63-0.68,30.95-0.93
	c5.29-0.13,10.59-0.02,16.35-0.02c0.03-0.42,0.19-1.64,0.21-2.85c0.33-22.48,0.58-44.96,0.98-67.44c0.13-7.49,0.56-14.97,0.99-22.45
	c0.1-1.79,0.44-3.69,1.24-5.26c0.47-0.93,2.04-1.3,3.12-1.92c0.51,0.94,1.34,1.84,1.47,2.83c0.24,1.8,0.18,3.67,0.04,5.49
	c-2.61,34.25-1.85,68.58-2.09,102.88c-0.25,35.82,0.19,71.65,0.44,107.47c0.09,12.65,0.49,25.3,0.72,37.95
	c0.02,1.25-0.2,2.5-0.37,4.45c-2.8-2.23-2.55-4.92-2.67-7.15c-0.76-14.62-1.29-29.24-1.94-43.87c-0.15-3.3-0.48-6.59-0.8-10.92
	c-18.81,9.98-36.27,20.57-52.94,32.71c1.28-0.3,2.56-0.6,4.53-1.06c0.22,2.39,0.58,4.46,0.58,6.54c0,6.33-0.12,12.66-0.23,18.99
	c-0.02,1.16,0.14,2.56-0.44,3.4c-0.85,1.23-2.29,2.05-3.48,3.05c-0.79-1.13-2.16-2.19-2.29-3.39c-0.75-6.92-1.34-13.86-1.67-20.82
	c-0.08-1.67,1.01-3.39,1.78-5.77c-1.3,0.67-2.27,1-3.04,1.59c-17.15,13.15-34.23,26.38-51.44,39.45c-2.77,2.1-5.11,5.36-9.35,5.08
	c-1.26-5.83-0.16-10.24,5.12-13.85c9.17-6.28,17.88-13.22,26.78-19.88c7.14-4.89,14.29-9.78,20.76-14.21
	c-6.67-5.97-13.13-11.75-19.87-17.78c0,8.5,0.11,16.59-0.07,24.68C179.95,246.1,179,248.3,178.46,250.5z M221.99,222.02
	c-2.76-0.24-1.75-2.4-1.78-3.81c-0.12-4.87-0.05-9.75-0.05-15.52c-6.09,11.34-11.7,21.78-17.33,32.26
	c6.33-4.31,12.72-8.65,19.1-12.99c0.5-0.26,1-0.53,1.5-0.79c-0.04-0.06-0.07-0.11-0.11-0.17
	C222.88,221.34,222.44,221.68,221.99,222.02z M240,181c-6.35,2.67-12.7,5.33-18.53,7.78c5.55,5.68,1.99,12.72,3.73,19.16
	c3.79-6.49,7.42-12.52,10.87-18.66c1.49-2.66,2.62-5.53,3.91-8.31c0.66-0.34,1.32-0.68,1.98-1.02c2.38-0.14,3.19,1.05,3.13,3.34
	c-0.11,4.06-0.03,8.12-0.03,12.18c2.2-1.98,3.44-4.24,4.86-6.38c2.94-4.42,5.89-8.84,9-13.14c1.3-1.8,3.02-3.19,5.52-0.56
	c-7.73,10.04-14.64,20.44-19.14,33.05c6.84-3.58,13.21-6.9,19.64-10.27c0-9.26,0-18.67,0-28.15c-7.83,3.42-15.37,6.71-22.92,10
	C241.35,180.35,240.68,180.68,240,181z M202.68,225.2c0.28,0.16,0.55,0.33,0.83,0.49c5.5-11.78,11-23.56,16.94-36.29
	c-6.57,3.25-12.16,6.02-17.77,8.79C202.68,207.4,202.68,216.3,202.68,225.2z M197.47,227.19c0-8.67,0-17.35,0-26.46
	c-6.88,3.63-13.54,7.15-20.33,10.73C185.5,214.72,190.28,221.83,197.47,227.19z M241.56,210.65c-0.32-6.89-0.6-12.96-0.94-20.06
	c-6,10.11-12.47,18.65-16.15,29.91C230.95,216.77,236.47,213.59,241.56,210.65z"/>
<path class="st3" d="M527.65,405.07c-7.65-1.44-15.26-3.18-22.96-4.26c-19.94-2.79-39.87-5.8-59.9-7.8
	c-67.08-6.7-134.38-7.68-201.72-6.78c-44.99,0.6-89.95,2.26-134.8,5.98c-33.02,2.74-65.98,6.08-98.53,12.6
	c-1.08,0.22-2.22,0.12-4.47,0.23c8.91-5.42,17.64-8.37,26.48-10.95c20.5-5.98,41.48-9.54,62.64-12.1
	c69.99-8.47,140.27-9.29,210.6-7.08c32.29,1.01,64.59,2.73,96.8,5.33c37.67,3.04,75.12,8.05,111.54,18.8
	c4.89,1.44,9.66,3.26,14.48,4.91C527.75,404.33,527.7,404.7,527.65,405.07z"/>
<path class="st5" d="M243.57,391.83c7.09-0.72,7.1-0.73,9.85,5.35c2.87,6.36,5.71,12.73,8.57,19.09c0.13,0.29,0.4,0.51,1.25,1.55
	c3.87-8.94,7.55-17.47,11.36-26.27c2.2,0,4.45,0,7.32,0c0,12.86,0,25.71,0,38.88c-2.02,0-4.1,0-6.61,0c0-7.29,0-14.55,0-21.8
	c-0.33-0.1-0.65-0.2-0.98-0.29c-0.71,1.51-1.47,2.99-2.12,4.52c-2.15,5.04-4.16,10.15-6.45,15.13c-0.52,1.13-1.98,2.57-2.95,2.53
	c-1.04-0.04-2.4-1.48-2.95-2.62c-2.18-4.48-4.06-9.09-6.11-13.63c-0.65-1.43-1.46-2.79-2.99-3.99c0,6.68,0,13.36,0,20.33
	c-2.5,0-4.6,0-7.18,0C243.57,417.83,243.57,404.97,243.57,391.83z"/>
<path class="st5" d="M369.99,394.82c6,0.49,11.33,0.6,16.54,1.41c9.07,1.41,12.55,12.96,6.3,20.4c-0.85,1.01-1.92,1.82-2.71,2.55
	c2.09,5.47,4.13,10.81,6.29,16.47c-3.36,0-6.24,0-9.22,0c-1.18-3.55-2.2-6.86-3.37-10.12c-1.19-3.31-3.18-5.52-7.54-4.26
	c-0.45,4.22-0.94,8.72-1.46,13.6c-2.74-0.32-4.97-0.57-7.55-0.87C368.18,420.9,369.06,408.2,369.99,394.82z M377.06,413.06
	c2.39,0.17,4.66,0.53,6.9,0.43c2.97-0.13,4.3-1.93,4.31-4.92c0.01-2.95-1.65-4.23-4.23-4.46c-2.22-0.2-4.48-0.04-6.98-0.04
	C377.06,407.23,377.06,409.96,377.06,413.06z"/>
<path class="st5" d="M218.29,392.04c6.33,0.01,10.87,2.46,13.73,7.47c4.57,8.03,5.03,16.44,1.11,24.85
	c-2.69,5.75-7.46,8.97-13.84,8.99c-5.92,0.03-10.58-2.78-13.46-7.99c-4.29-7.76-4.6-15.91-1.1-23.97
	C207.32,395.42,212.07,392.09,218.29,392.04z M209.82,410.81c0.68,3.36,0.89,5.87,1.71,8.17c1.37,3.83,4.23,5.59,7.99,5.44
	c3.56-0.14,6.32-2.42,7.54-6.15c1.34-4.12,1.06-8.21-0.58-12.14c-2.27-5.43-8.8-7.34-12.55-3.34
	C211.82,405.03,210.98,408.44,209.82,410.81z"/>
<path class="st5" d="M175.86,434.37c-2.52,0.12-4.76,0.24-7.43,0.37c-0.72-13.14-1.42-25.85-2.15-39.28
	c2.48-0.15,4.83-0.29,7.68-0.47c0.42,5.16,0.8,9.88,1.23,15.17c4.26-0.21,8.32-0.41,12.62-0.62c-0.25-5.2-0.48-9.94-0.73-15.09
	c2.64,0,4.88,0,7.77,0c0.7,12.45,1.42,25.13,2.17,38.38c-2.59,0.33-4.92,0.62-7.59,0.96c-0.48-5.48-0.91-10.54-1.37-15.81
	c-4.15,0-8.03,0-12.19,0C175.86,423.58,175.86,428.8,175.86,434.37z"/>
<path class="st5" d="M113.85,437.6c-2.18,0.45-3.33,0.64-4.45,0.92c-2.62,0.66-4.61,0.1-5.4-2.75c-1-3.6-3.42-4.36-6.84-3.81
	c-3.75,0.61-7.56,0.89-11.78,1.36c-1.69,3.87-1.7,10.32-9.72,7.77c3.8-13.44,7.62-26.92,11.52-40.71c2.25-0.15,4.36-0.28,6.76-0.44
	C100.56,412.46,107.12,424.87,113.85,437.6z M87.13,425.68c3.92-0.39,7.24-0.72,11.14-1.11c-2.43-4.76-4.52-8.86-6.99-13.69
	C89.81,416.14,88.54,420.67,87.13,425.68z"/>
<path class="st5" d="M298.82,414.61c0,2.99,0,5.41,0,8.44c4.4,0,8.82,0,13.58,0c0,2.96,0,5.35,0,7.88c-7.27,0-14.47,0-21.6,0
	c0-13.28,0-26.01,0-38.97c7.3,0,14.05,0,21.25,0c0,2.73,0,5.11,0,8.02c-4.44,0-8.67,0-13.03,0c0,2.26,0,4,0,6.28
	c3.66,0,7.08,0,10.77,0c0,2.95,0,5.37,0,8.36C306.21,414.61,302.65,414.61,298.82,414.61z"/>
<path class="st5" d="M455.1,402.38c7.41,0.99,13.96,1.86,20.92,2.78c-0.23,2.63-0.43,4.87-0.68,7.67
	c-4.54-0.49-8.72-0.95-13.18-1.43c-0.43,2-0.83,3.91-1.33,6.23c3.72,0.63,7.24,1.23,11.33,1.92c-0.15,2.3-0.29,4.52-0.47,7.38
	c-3.94-0.34-7.61-0.65-11.53-0.98c-0.46,2.7-0.88,5.11-1.4,8.17c4.73,0.78,9.2,1.51,14.18,2.33c-0.35,2.54-0.68,4.9-1.08,7.79
	c-7.37-0.94-14.38-1.84-21.88-2.8C451.7,428.28,453.38,415.52,455.1,402.38z"/>
<path class="st5" d="M505.09,409.74c-0.2,3.67-0.34,6.26-0.51,9.19c-3.03-1.21-5.54-2.28-8.1-3.2c-1.07-0.39-2.35-0.86-3.37-0.61
	c-1.45,0.36-3.52,1.06-3.91,2.13c-0.39,1.09,0.56,3.23,1.6,4.13c1.58,1.37,3.74,2.1,5.67,3.06c7.3,3.64,9.4,9.04,6.39,16.51
	c-1.99,4.95-5.95,7.83-11.24,7.43c-3.09-0.24-6.23-1.09-9.12-2.23c-4.61-1.83-4.68-2.3-3.93-7.12c0.23-1.47,0.43-2.95,0.63-4.31
	c2.58,1.6,5.08,3.47,7.85,4.76c1.56,0.73,3.65,0.94,5.34,0.6c1.38-0.28,3.37-1.61,3.54-2.71c0.22-1.39-0.76-3.49-1.91-4.44
	c-1.89-1.55-4.39-2.33-6.54-3.58c-5.58-3.25-7.21-7.52-5.44-13.94c1.51-5.46,5.4-8.45,11.59-8.04
	C497.35,407.6,501,408.85,505.09,409.74z"/>
<path class="st5" d="M65.99,404.07c0.55,3.19,1.02,5.88,1.46,8.43c-3.86-0.2-7.43-0.56-11-0.49c-2.2,0.04-4.51,0.84-4.56,3.6
	c-0.05,2.46,1.98,3.23,4.02,3.67c2.59,0.56,5.23,0.92,7.78,1.61c5.84,1.58,8.22,4.92,8.33,11.34c0.12,6.71-2.22,10.34-8.04,12.08
	c-2.05,0.61-4.21,1-6.34,1.15c-6.63,0.47-8.45-0.99-9.67-7.34c-0.21-1.11-0.53-2.2-0.71-2.94c3.8,0.73,7.52,1.66,11.3,2.05
	c1.48,0.15,3.32-0.57,4.58-1.48c2.83-2.05,2.31-5.39-1-6.53c-2.17-0.75-4.54-0.94-6.81-1.38c-7.25-1.42-10.58-5.59-10.33-12.92
	c0.2-5.9,4.16-9.98,10.94-10.77C59.14,403.76,62.44,404.07,65.99,404.07z"/>
<path class="st5" d="M337.25,392.7c5.89,0.43,11.23,0.42,16.42,1.31c6.44,1.1,9.42,5.76,8.73,12.36
	c-0.84,8.12-4.21,11.58-11.35,11.65c-2.29,0.02-4.57,0-6.96,0c-0.43,5-0.82,9.56-1.26,14.56c-2.62-0.27-4.86-0.51-6.69-0.7
	c0-6.67-0.14-13.1,0.04-19.52C336.36,406.08,336.85,399.82,337.25,392.7z M344.45,401.41c0,3.47,0,6.12,0,8.82
	c3.46,0.59,6.77,1.29,9.11-1.25c0.92-1.01,1.09-3.68,0.42-5C352.02,400.12,348.18,402.44,344.45,401.41z"/>
<path class="st4" d="M234.24,90.05c-4.22,3.68-8.45,7.38-12.69,11.07c-1.25,1.09-2.47,2.22-3.74,3.3c-1.18,1-2.69,2.04-3.79,0.4
	c-0.65-0.97-0.82-3.05-0.21-3.91c1.6-2.24,3.55-4.35,5.75-6.01c3.29-2.49,6.91-4.54,11.08-7.23c-5.21-3.83-9.94-7.32-14.69-10.78
	c-0.8-0.59-1.68-1.08-2.54-1.58c-2.05-1.19-2-2.98-1.11-4.73c1.09-2.17,2.81-1.98,4.57-0.74c5.16,3.63,10.52,7.02,15.4,10.99
	c3.07,2.5,5.16,2.19,8.24,0.08c5.61-3.84,11.56-7.19,17.45-10.62c1.31-0.76,2.93-0.96,4.62-1.49c0.98,3.47-1.11,4.34-2.93,5.4
	c-5.03,2.92-10.07,5.82-15.06,8.8c-1.38,0.83-2.61,1.91-4.78,3.51c6.46,4.09,12.2,7.92,18.16,11.36c1.9,1.1,3.75,1.66,2.68,4.27
	c-1.02,2.49-2.96,3.15-5.2,1.76c-5.5-3.41-10.91-6.97-16.34-10.49C237.6,92.44,236.12,91.35,234.24,90.05z"/>
<path class="st5" d="M141.25,397.59c0.36,2.79,0.73,5.71,1.14,8.99c-6.64-2.6-13.27-5.63-18.41,1.85
	c-3.12,4.54-1.91,13.77,1.94,17.7c4.26,4.35,9.39,3.99,18.81-1.44c0,3.19,0,6.23,0,9.19c-7.28,5.01-19.36,4.46-24.45-1.39
	c-6.43-7.39-7.79-21.45-2.62-29.43C121.46,397.19,130.63,393.67,141.25,397.59z"/>
<path class="st5" d="M446.99,401.99c-0.15,3.32-0.27,5.94-0.41,9.02c-6.58-3.1-13.12-8.02-19.26-0.14
	c-3.34,4.29-3.58,12.93-0.32,16.99c5.44,6.77,12,4.36,18.91,1.25c-0.51,2.42-1.1,4.3-1.28,6.22c-0.35,3.61-2.58,4.42-5.74,4.69
	c-19.57,1.65-23.21-12.1-21.54-24.8c0.11-0.82,0.4-1.61,0.62-2.41c3.37-12.3,11.62-15.38,22.36-13.32
	C442.55,399.9,444.63,401.08,446.99,401.99z"/>
<path class="st4" d="M380.71,360.85c-6.27,0-12.19,0-18.42,0c0-8.52,0-16.88,0-25.56c6.03,0,12.07,0,18.42,0
	C380.71,343.66,380.71,352.02,380.71,360.85z"/>
<path class="st4" d="M337.33,335.16c6.15,0,12.07,0,18.34,0c0,8.42,0,16.78,0,25.5c-5.91,0-11.95,0-18.34,0
	C337.33,352.42,337.33,344.06,337.33,335.16z"/>
<path class="st4" d="M134.66,193.72c-1.98-4.19-1.11-6.82,2.81-8.54c14.29-6.26,28.59-12.51,43.82-16.24
	c6.9-1.69,13.83-3.25,20.78-4.73c1.49-0.32,3.73-0.89,3.91,1.53c0.07,0.93-1.52,2.68-2.56,2.87
	C179.16,172.98,157.27,183.82,134.66,193.72z"/>
<path class="st4" d="M362.13,329.71c0-8.59,0-16.83,0-25.2c4.95-1.79,8.42,0.66,11.32,3.95c5.24,5.94,7.35,13.1,7.59,21.25
	C374.73,329.71,368.68,329.71,362.13,329.71z"/>
<path class="st4" d="M356.02,329.83c-6.47,0-12.39,0-18.3,0c-2.8-11.76,7.15-26.2,18.3-25.65c0,4.21,0,8.46,0,12.71
	C356.02,321.03,356.02,325.16,356.02,329.83z"/>
<path class="st5" d="M403.65,397.11c2.95,0.38,5.18,0.67,7.75,0.99c-1.1,12.96-2.18,25.62-3.31,38.84
	c-2.74-0.25-5.11-0.47-7.83-0.72C401.4,423.16,402.49,410.53,403.65,397.11z"/>
<path class="st4" d="M131.46,349.14c4.55,0,8.8,0,13.31,0c0,6.27,0,12.32,0,18.63c-4.43,0-8.69,0-13.31,0
	C131.46,361.72,131.46,355.68,131.46,349.14z"/>
<path class="st4" d="M126.59,367.9c-4.57,0-8.71,0-13.6,0c0-3.12,0-6.19,0-9.27c0-2.98,0-5.96,0-9.33c4.55,0,8.92,0,13.6,0
	C126.59,355.32,126.59,361.37,126.59,367.9z"/>
<path class="st4" d="M144.73,344.88c-4.6,0-8.85,0-13.36,0c0-6.29,0-12.35,0-18.39C139.18,325.47,145.35,333.86,144.73,344.88z"/>
<path class="st4" d="M113.39,344.82c-1-10.46,5.16-19.11,13.25-18.47c0,6.04,0,12.11,0,18.47
	C122.24,344.82,117.99,344.82,113.39,344.82z"/>
<path class="st6" d="M174.93,200.31c-2.13,3.05-4.09,3.62-7.15,2.62c-8.74-2.83-17.62-5.24-26.54-7.85
	c0.65-2.22,2.51-2.73,4.61-2.48C155.72,193.82,165.41,195.78,174.93,200.31z"/>
<path class="st4" d="M204.01,267.7c-0.3,3.59,2.08,4.08,4.49,4.58c8.04,1.7,15.85,0.09,23.62-1.73c4.46-1.04,8.85-2.4,13.39-3.23
	c-6.29,3.77-13.21,5.97-20.29,7.27c-5.66,1.04-11.52,1.17-17.3,1.36c-2.06,0.07-4.27-0.6-6.2-1.44c-3.57-1.55-3.59-3.38-0.28-5.56
	C202.11,268.53,202.89,268.25,204.01,267.7z"/>
<path class="st4" d="M163.82,185.36c1.79-2.42,4.45-2.63,7.08-2.23c7.81,1.19,15.59,2.55,23.37,3.93c1.42,0.25,2.77,0.88,4.45,1.44
	c-2.07,2.97-4.26,3.64-7.71,2.78C182.04,189.03,172.95,187.31,163.82,185.36z"/>
<path class="st4" d="M219.48,180.95c-1.75,0.32-3.57,1.12-5.24,0.87c-9.26-1.39-18.49-3.04-28.53-4.73c1.98-0.76,3.6-1.87,5.25-1.92
	c6.24-0.19,12.39,0.22,18.44,2.34c3.09,1.09,6.64,0.89,9.98,1.28C219.41,179.51,219.45,180.23,219.48,180.95z"/>
<path class="st4" d="M242.08,172.95c-7.49,1.13-14.47-2.33-21.83-2.48c-2.9-0.06-5.79-0.52-8.68-0.8c-0.08-0.34-0.17-0.69-0.25-1.03
	c2.07-0.51,4.11-1.32,6.21-1.47c7.51-0.54,14.77,0.99,21.97,3.02c1.58,0.45,2.64,1.02,2.51,2.83L242.08,172.95z"/>
<path class="st4" d="M306.87,57.64c-1.09-4.78-0.57-9.65-0.07-14.48c0.06-0.62,1.37-1.59,2.05-1.55c0.71,0.04,1.92,1.09,1.94,1.74
	c0.15,4.11,0.18,8.24-0.11,12.34c-0.06,0.9-1.56,1.7-2.4,2.55C307.81,58.03,307.34,57.84,306.87,57.64z"/>
<path class="st4" d="M320.27,41.46c0.15,4.54,0.43,9.07,0.34,13.61c-0.02,0.87-1.35,2.01-2.33,2.44c-0.4,0.17-2.19-1.28-2.14-1.9
	c0.37-4.79,0.12-9.74,2.23-14.21C319.01,41.42,319.64,41.44,320.27,41.46z"/>
<path class="st4" d="M330.66,39.9c0,6.84,1.48,12.4-1.63,17.76c-3.53-4.69-1.38-10.06-1.75-15.09
	C327.24,41.99,328.86,41.28,330.66,39.9z"/>
<path class="st6" d="M330,247.26c3.34-5.81,7.88-0.83,11.09-2.65c0.02-0.06,0.05-0.13,0.07-0.19c-0.12,0.07-0.23,0.17-0.35,0.2
	C337.5,245.43,334.19,246.24,330,247.26z"/>
<path class="st4" d="M332.57,96.94c0.98,3.52,0.45,5.15-2.99,5.08c-7.13-0.14-14.27-0.07-21.4-0.08c-0.33,0-0.76,0.13-0.98-0.02
	c-1.06-0.76-2.07-1.61-3.1-2.42c0.98-0.85,1.95-2.42,2.95-2.44C315.48,96.85,323.91,96.94,332.57,96.94z"/>
<path class="st4" d="M321.07,140.97c-3.61-0.54-7.22-1.09-11.54-1.74c6.2-2.23,9.12-1.66,11.48,1.8
	C321.01,141.03,321.07,140.97,321.07,140.97z"/>
</svg>
